<?xml version="1.0" encoding="UTF-8" standalone="no"?>
<!-- Created with Inkscape (http://www.inkscape.org/) -->

<svg
   xmlns:osb="http://www.openswatchbook.org/uri/2009/osb"
   xmlns:dc="http://purl.org/dc/elements/1.1/"
   xmlns:cc="http://creativecommons.org/ns#"
   xmlns:rdf="http://www.w3.org/1999/02/22-rdf-syntax-ns#"
   xmlns:svg="http://www.w3.org/2000/svg"
   xmlns="http://www.w3.org/2000/svg"
   xmlns:sodipodi="http://sodipodi.sourceforge.net/DTD/sodipodi-0.dtd"
   xmlns:inkscape="http://www.inkscape.org/namespaces/inkscape"
   width="744.09448819"
   height="1052.3622047"
   id="svg2"
   version="1.1"
   inkscape:version="0.48.5 r10040"
   sodipodi:docname="New document 1">
  <defs
     id="defs4">
    <linearGradient
       id="linearGradient5273"
       osb:paint="solid">
      <stop
         style="stop-color:#000000;stop-opacity:1;"
         offset="0"
         id="stop5275" />
    </linearGradient>
  </defs>
  <sodipodi:namedview
     id="base"
     pagecolor="#ffffff"
     bordercolor="#666666"
     borderopacity="1.0"
     inkscape:pageopacity="0.0"
     inkscape:pageshadow="2"
     inkscape:zoom="1.979899"
     inkscape:cx="312.43915"
     inkscape:cy="583.62553"
     inkscape:document-units="px"
     inkscape:current-layer="layer1"
     showgrid="true"
     showguides="true"
     inkscape:guide-bbox="true"
     inkscape:snap-grids="true"
     inkscape:snap-object-midpoints="false"
     inkscape:snap-center="false"
     inkscape:snap-nodes="true"
     inkscape:snap-bbox="false"
     inkscape:object-nodes="true"
     inkscape:snap-global="true"
     inkscape:bbox-paths="false"
     inkscape:window-width="1920"
     inkscape:window-height="1014"
     inkscape:window-x="0"
     inkscape:window-y="27"
     inkscape:window-maximized="1">
    <inkscape:grid
       type="xygrid"
       id="grid3773" />
  </sodipodi:namedview>
  <metadata
     id="metadata7">
    <rdf:RDF>
      <cc:Work
         rdf:about="">
        <dc:format>image/svg+xml</dc:format>
        <dc:type
           rdf:resource="http://purl.org/dc/dcmitype/StillImage" />
        <dc:title></dc:title>
      </cc:Work>
    </rdf:RDF>
  </metadata>
  <g
     inkscape:label="Layer 1"
     inkscape:groupmode="layer"
     id="layer1">
    <path
       style="fill:#000000;fill-opacity:1;stroke:#000000;stroke-width:1px;stroke-linecap:butt;stroke-linejoin:miter;stroke-opacity:1"
       d="m 0.5,411.86218 50,0 10,60 0,70 -70,0 0,-65 z"
       id="path3801"
       inkscape:connector-curvature="0"
       sodipodi:nodetypes="ccccccc" />
    <path
       style="fill:#000000;fill-opacity:1;stroke:#000000;stroke-width:1px;stroke-linecap:butt;stroke-linejoin:miter;stroke-opacity:1"
       d="m 500.5,411.86218 50,0 10,60 0,70 -70,0 0,-65 z"
       id="path3801-1"
       inkscape:connector-curvature="0"
       sodipodi:nodetypes="ccccccc" />
    <text
       xml:space="preserve"
       style="font-size:40px;font-style:normal;font-weight:normal;line-height:125%;letter-spacing:0px;word-spacing:0px;fill:#000000;fill-opacity:1;stroke:none;font-family:Sans"
       x="218.57143"
       y="434.50504"
       id="text5297"
       sodipodi:linespacing="125%"><tspan
         sodipodi:role="line"
         x="218.57143"
         y="434.50504"
         id="tspan5301" /></text>
    <path
       d="m 275,252.36218 c -2.35304,0 -4.52343,1.21668 -5.75383,3.25749 l -12.22688,20.15169 c -1.92194,0.16051 -3.84535,0.35931 -5.75382,0.57485 l -15.82302,-17.30938 c -1.60312,-1.75187 -3.98179,-2.53904 -6.28543,-2.07585 -2.31262,0.47237 -4.21283,2.11891 -5.0346,4.37525 l -8.09913,22.13174 c -1.87704,0.55032 -3.74288,1.12836 -5.59747,1.72455 l -18.79375,-13.79641 c -1.90847,-1.40791 -4.39345,-1.69285 -6.56687,-0.76646 -2.16892,0.91721 -3.71927,2.90305 -4.09647,5.26946 l -3.72123,23.34531 c -1.72436,0.91262 -3.42649,1.85188 -5.1284,2.81038 l -21.07652,-9.80439 c -2.14197,-0.99976 -4.64925,-0.79623 -6.59814,0.54291 -1.95787,1.32995 -3.0918,3.60547 -3.00199,6.00399 l 0.81304,23.69661 c -1.49984,1.22448 -3.00333,2.47077 -4.47172,3.73653 l -22.57752,-5.42915 c -2.29464,-0.54574 -4.71773,0.15545 -6.37924,1.8523 -1.67047,1.70143 -2.35258,4.13955 -1.8137,6.48303 l 5.31603,23.08982 c -1.2349,1.49506 -2.42843,3.00318 -3.62741,4.53493 l -23.202928,-0.83034 c -2.339566,-0.0688 -4.57216,1.09828 -5.878909,3.09781 -1.311222,1.99035 -1.506041,4.51444 -0.531603,6.70658 l 9.600133,21.55689 c -0.934031,1.72895 -1.858206,3.4673 -2.75183,5.23753 l -22.858949,3.80039 c -2.321603,0.38524 -4.288351,1.96398 -5.190951,4.18364 -0.898107,2.22423 -0.587841,4.7575 0.78177,6.70658 l 13.508982,19.19362 c -0.588261,1.89405 -1.149765,3.79959 -1.688623,5.71656 l -21.70193,8.27146 c -2.200353,0.83925 -3.794803,2.77989 -4.252827,5.14172 -0.458045,2.35724 0.281457,4.77735 2.00133,6.41916 l 16.98004,16.15968 c -0.21106,1.94908 -0.401196,3.91799 -0.562874,5.87625 L 43.220892,486.454 C 41.222623,487.71516 40,489.9545 40,492.36218 l 62.04125,0 c 0,-97.15928 77.42886,-175.93613 172.95875,-175.93613 95.52989,0 172.95875,78.77685 172.95875,175.93613 l 62.04125,0 c 0,-2.4031 -1.2226,-4.64702 -3.22089,-5.90818 l -19.73187,-12.45509 c -0.16615,-1.96284 -0.35631,-3.92717 -0.56288,-5.87625 l 16.98004,-16.15968 c 1.72437,-1.64181 2.46835,-4.06651 2.00134,-6.41916 -0.45356,-2.36183 -2.04798,-4.30247 -4.25283,-5.14172 l -21.70193,-8.27146 c -0.54336,-1.91697 -1.10486,-3.82251 -1.68862,-5.71656 l 13.54025,-19.19362 c 1.37859,-1.94908 1.6486,-4.48235 0.7505,-6.70658 -0.89811,-2.21508 -2.86935,-3.79382 -5.19095,-4.18364 l -22.85895,-3.80039 c -0.88913,-1.77023 -1.8178,-3.50858 -2.75183,-5.23753 l 9.6314,-21.55689 c 0.98342,-2.19214 0.77963,-4.71623 -0.5316,-6.70658 -1.30674,-1.99953 -3.51689,-3.18953 -5.87891,-3.09781 l -23.20293,0.83034 c -1.19897,-1.53175 -2.41481,-3.04446 -3.65868,-4.53493 l 5.31603,-23.08982 c 0.53886,-2.34348 -0.14323,-4.7816 -1.8137,-6.48303 -1.657,-1.69685 -4.05332,-2.40262 -6.34797,-1.8523 l -22.60879,5.42915 c -1.46391,-1.26576 -2.93612,-2.51205 -4.44045,-3.73653 l 0.81304,-23.69661 c 0.0898,-2.39852 -1.0754,-4.67404 -3.03326,-6.00399 -1.96237,-1.33914 -4.42489,-1.5381 -6.56687,-0.54291 l -21.07651,9.80439 c -1.70192,-0.95391 -3.40406,-1.89776 -5.12841,-2.81038 l -3.7525,-23.34531 c -0.3772,-2.36641 -1.92306,-4.35225 -4.09647,-5.26946 -2.16894,-0.9218 -4.65839,-0.63687 -6.56687,0.76646 l -18.79375,13.79641 c -1.85009,-0.60078 -3.68915,-1.17423 -5.5662,-1.72455 l -8.1304,-22.13174 c -0.82177,-2.25634 -2.72197,-3.90747 -5.0346,-4.37525 -2.30812,-0.46319 -4.6823,0.32398 -6.28543,2.07585 l -15.79175,17.30938 c -1.90848,-0.21554 -3.83637,-0.41434 -5.75382,-0.57485 L 280.7851,255.61967 c -1.2349,-2.04081 -3.43207,-3.25749 -5.7851,-3.25749 z"
       id="path5452" />
    <path
       d="m 164.67566,316.39533 -6.18832,-13.99215"
       id="path5442" />
    <path
       d="m 353.18827,250.44194 -182.20762,0"
       id="path5436" />
    <path
       d="M 180.0625 333.4375 C 174.33391 340.10289 169.28437 347.41592 165 355.25 L 165 371.5625 L 170.53125 371.5625 C 170.7956 371.5625 171.053 371.57505 171.3125 371.59375 L 171.3125 371.5625 L 188.375 371.5625 L 188.375 402.125 L 188.375 452.125 L 175 452.125 L 175 492.375 L 194.84375 492.375 L 271.3125 492.375 C 272.42692 492.375 273.15625 492.1545 273.15625 491.09375 L 273.15625 454.65625 C 273.15625 453.59551 272.42692 453.375 271.3125 453.375 L 242.5 453.375 L 242.5 430.28125 L 273.65625 430.28125 C 276.49895 430.28125 288.83044 431.12915 292.78125 447.65625 C 294.01845 452.73917 296.7364 469.29992 298.59375 474.59375 C 300.4448 480.52989 308.00053 492.375 316.03125 492.375 L 356.5 492.375 L 365.09375 492.375 C 365.65094 492.375 366.21729 492.30588 366.84375 492.1875 C 379.93676 473.63784 388.29674 451.23499 390 426.875 L 389.90625 426.875 L 377.5625 426.875 C 376.32531 426.875 375.8125 427.76298 375.8125 429.03125 L 375.8125 434.96875 C 375.8125 448.94947 368.28898 451.97591 361.6875 452.75 C 355.40083 453.4912 348.42194 449.99423 347.5625 445.96875 C 343.8541 424.14122 337.66523 419.49183 327.90625 411.4375 C 340.01684 403.38969 352.65625 391.51631 352.65625 375.625 C 352.65625 358.46541 341.41238 347.64414 333.75 342.34375 C 322.99937 334.92846 311.086 333.4375 307.875 333.4375 L 180.0625 333.4375 z M 242.53125 372.4375 L 283.15625 372.4375 C 285.256 372.4375 297.96875 374.9791 297.96875 384.9375 C 297.96875 393.20597 288.21506 396.15625 280.1875 396.15625 L 242.53125 396.15625 L 242.53125 372.4375 z "
       id="path5355-7-6" />
    <rect
       style="fill:#000000;fill-opacity:1;stroke:none"
       id="rect5574"
       width="460"
       height="10"
       x="50"
       y="492.36218" />
    <rect
       style="fill:#000000;fill-opacity:1;stroke:none"
       id="rect5600"
       width="10"
       height="155"
       x="385"
       y="342.36218" />
    <rect
       style="fill:#000000;fill-opacity:1;stroke:none"
       id="rect5600-4"
       width="10"
       height="150"
       x="165"
       y="342.36218" />
    <rect
       style="fill:#000000;fill-opacity:1;stroke:none"
       id="rect5600-6"
       width="10"
       height="150"
       x="130"
       y="342.36218" />
    <rect
       style="fill:#000000;fill-opacity:1;stroke:none"
       id="rect5600-9"
       width="10"
       height="150"
       x="420"
       y="352.36218" />
    <rect
       style="fill:#000000;fill-opacity:1;stroke:none"
       id="rect5647"
       width="35"
       height="40"
       x="360"
       y="457.36218" />
    <rect
       style="fill:#000000;fill-opacity:1;stroke:none"
       id="rect5649"
       width="15"
       height="35"
       x="380"
       y="427.36218" />
    <rect
       style="fill:#000000;fill-opacity:1;stroke:none"
       id="rect5651"
       width="75"
       height="10"
       x="315"
       y="487.36218" />
    <rect
       style="fill:#000000;fill-opacity:1;stroke:none"
       id="rect5653"
       width="45"
       height="10"
       x="450"
       y="487.36218" />
    <rect
       style="fill:#000000;fill-opacity:1;stroke:none"
       id="rect5655"
       width="105"
       height="10"
       x="165"
       y="487.36218" />
    <rect
       style="fill:#000000;fill-opacity:1;stroke:none"
       id="rect5657"
       width="45"
       height="14"
       x="55"
       y="482.36218" />
  </g>
</svg>
